<svg xmlns="http://www.w3.org/2000/svg" xmlns:xlink="http://www.w3.org/1999/xlink" width="25.767" height="25.72" viewBox="0 0 25.767 25.72"><defs><path id="a" d="M0 0h25.767v25.72H0z"/></defs><clipPath id="b"><use xlink:href="#a" overflow="visible"/></clipPath><path clip-path="url(#b)" fill="#007BB6" d="M.425 8.54h5.344v17.18H.425V8.54zM3.098 0a3.097 3.097 0 1 1-.004 6.194A3.097 3.097 0 0 1 3.098 0M9.118 8.54h5.118v2.349h.073c.712-1.351 2.455-2.775 5.053-2.775 5.405 0 6.404 3.557 6.404 8.184v9.422H20.43v-8.354c0-1.992-.036-4.555-2.776-4.555-2.778 0-3.202 2.171-3.202 4.413v8.497H9.118V8.54z"/></svg>