<svg xmlns="http://www.w3.org/2000/svg" xmlns:xlink="http://www.w3.org/1999/xlink" width="24" height="24" viewBox="0 0 24 24"><defs><path id="a" d="M7.15 21.767c-1.17-.053-1.806-.248-2.228-.413a3.724 3.724 0 0 1-1.379-.896 3.695 3.695 0 0 1-.898-1.38c-.164-.424-.36-1.059-.414-2.229-.056-1.266-.069-1.646-.069-4.849 0-3.205.013-3.584.069-4.851.054-1.17.25-1.805.414-2.228.217-.561.478-.96.897-1.38.42-.419.819-.68 1.38-.897.423-.165 1.058-.359 2.228-.413 1.266-.057 1.646-.069 4.85-.069 3.204 0 3.584.012 4.848.069 1.17.054 1.807.248 2.23.413.559.218.959.479 1.379.897.42.42.68.819.896 1.38.164.423.361 1.058.414 2.228.059 1.267.07 1.646.07 4.851 0 3.203-.012 3.583-.07 4.849-.053 1.17-.25 1.805-.414 2.229-.217.56-.477.959-.896 1.38-.42.419-.82.679-1.379.896-.424.165-1.061.36-2.23.413-1.264.059-1.643.07-4.848.07-3.204 0-3.584-.012-4.85-.07M7.053.071C5.775.13 4.903.333 4.139.63a5.87 5.87 0 0 0-2.124 1.384A5.889 5.889 0 0 0 .63 4.139C.333 4.901.131 5.774.071 7.052.014 8.332 0 8.741 0 12c0 3.258.014 3.667.071 4.946.06 1.278.262 2.15.559 2.913a5.901 5.901 0 0 0 1.385 2.126 5.883 5.883 0 0 0 2.124 1.384c.765.297 1.637.5 2.914.558 1.28.059 1.688.072 4.947.072 3.258 0 3.668-.014 4.948-.072 1.277-.058 2.148-.261 2.912-.558a5.878 5.878 0 0 0 2.125-1.384 5.92 5.92 0 0 0 1.387-2.126c.295-.763.498-1.635.557-2.913.056-1.279.071-1.688.071-4.946 0-3.259-.016-3.668-.072-4.948-.059-1.277-.262-2.15-.557-2.913a5.908 5.908 0 0 0-1.387-2.125A5.865 5.865 0 0 0 19.859.63c-.764-.297-1.635-.5-2.912-.559C15.668.013 15.258 0 12 0 8.74 0 8.333.013 7.053.071"/></defs><clipPath id="b"><use xlink:href="#a" overflow="visible"/></clipPath><linearGradient id="c" gradientUnits="userSpaceOnUse" x1="-986.307" y1="512.988" x2="-985.307" y2="512.988" gradientTransform="scale(27.7104 -27.7104) rotate(60 -48.051 1110.385)"><stop offset="0" stop-color="#fab02a"/><stop offset=".505" stop-color="#dd2428"/><stop offset="1" stop-color="#a0248d"/></linearGradient><path clip-path="url(#b)" fill="url(#c)" d="M-10.393 17.999L6-10.393 34.391 6 18 34.391z"/><g><defs><path id="d" d="M8 12a4 4 0 1 1 8.002.002A4 4 0 0 1 8 12m-2.162 0a6.163 6.163 0 1 0 12.326-.002A6.163 6.163 0 0 0 5.838 12"/></defs><clipPath id="e"><use xlink:href="#d" overflow="visible"/></clipPath><linearGradient id="f" gradientUnits="userSpaceOnUse" x1="-986.085" y1="516.027" x2="-985.085" y2="516.027" gradientTransform="scale(12.3264 -12.3264) rotate(60 -44.57 1111.909)"><stop offset="0" stop-color="#fab02a"/><stop offset=".505" stop-color="#dd2428"/><stop offset="1" stop-color="#a0248d"/></linearGradient><path clip-path="url(#e)" fill="url(#f)" d="M.501 15.081L8.919.5l14.58 8.418-8.418 14.58z"/></g><g><defs><path id="g" d="M16.965 5.594a1.44 1.44 0 1 0 2.88 0 1.44 1.44 0 0 0-2.88 0"/></defs><clipPath id="h"><use xlink:href="#g" overflow="visible"/></clipPath><linearGradient id="i" gradientUnits="userSpaceOnUse" x1="-984.78" y1="533.985" x2="-983.779" y2="533.985" gradientTransform="scale(2.8805 -2.8805) rotate(60.001 -24.808 1123.948)"><stop offset="0" stop-color="#fab02a"/><stop offset=".505" stop-color="#dd2428"/><stop offset="1" stop-color="#a0248d"/></linearGradient><path clip-path="url(#h)" fill="url(#i)" d="M15.719 6.313l1.967-3.407 3.406 1.968-1.967 3.407z"/></g></svg>