<svg xmlns="http://www.w3.org/2000/svg" width="24" height="24" viewBox="0 0 24 24"><path fill="#2FBDE5" d="M24 4.556a9.8 9.8 0 0 1-2.828.776 4.923 4.923 0 0 0 2.166-2.725 9.816 9.816 0 0 1-3.129 1.194 4.924 4.924 0 0 0-8.389 4.49A13.974 13.974 0 0 1 1.671 3.146a4.929 4.929 0 0 0 1.524 6.577 4.915 4.915 0 0 1-2.231-.616v.062a4.924 4.924 0 0 0 3.951 4.827 4.84 4.84 0 0 1-1.298.173c-.317 0-.627-.028-.926-.087a4.926 4.926 0 0 0 4.599 3.419 9.879 9.879 0 0 1-6.115 2.106c-.398 0-.79-.021-1.175-.067a13.945 13.945 0 0 0 7.548 2.212c9.058 0 14.009-7.502 14.009-14.01 0-.213-.004-.428-.013-.637A9.97 9.97 0 0 0 24 4.556"/></svg>